<svg id="visual" viewBox="0 0 1920 1080" width="1920" height="1080" xmlns="http://www.w3.org/2000/svg" xmlns:xlink="http://www.w3.org/1999/xlink" version="1.1"><path d="M0 228L29.2 211.8C58.3 195.7 116.7 163.3 174.8 152.5C233 141.7 291 152.3 349.2 150.5C407.3 148.7 465.7 134.3 523.8 120C582 105.7 640 91.3 698.2 98.5C756.3 105.7 814.7 134.3 872.8 146.8C931 159.3 989 155.7 1047.2 166.5C1105.3 177.3 1163.7 202.7 1221.8 193.7C1280 184.7 1338 141.3 1396.2 141.3C1454.3 141.3 1512.7 184.7 1570.8 204.5C1629 224.3 1687 220.7 1745.2 197.2C1803.3 173.7 1861.7 130.3 1890.8 108.7L1920 87L1920 0L1890.8 0C1861.7 0 1803.3 0 1745.2 0C1687 0 1629 0 1570.8 0C1512.7 0 1454.3 0 1396.2 0C1338 0 1280 0 1221.8 0C1163.7 0 1105.3 0 1047.2 0C989 0 931 0 872.8 0C814.7 0 756.3 0 698.2 0C640 0 582 0 523.8 0C465.7 0 407.3 0 349.2 0C291 0 233 0 174.8 0C116.7 0 58.3 0 29.2 0L0 0Z" fill="#6198ff"></path><path d="M0 293L29.2 282.2C58.3 271.3 116.7 249.7 174.8 255C233 260.3 291 292.7 349.2 287.2C407.3 281.7 465.7 238.3 523.8 227.5C582 216.7 640 238.3 698.2 261.8C756.3 285.3 814.7 310.7 872.8 303.5C931 296.3 989 256.7 1047.2 251.2C1105.3 245.7 1163.7 274.3 1221.8 267.2C1280 260 1338 217 1396.2 224.3C1454.3 231.7 1512.7 289.3 1570.8 323.5C1629 357.7 1687 368.3 1745.2 350.3C1803.3 332.3 1861.7 285.7 1890.8 262.3L1920 239L1920 85L1890.8 106.7C1861.7 128.3 1803.3 171.7 1745.2 195.2C1687 218.7 1629 222.3 1570.8 202.5C1512.7 182.7 1454.3 139.3 1396.2 139.3C1338 139.3 1280 182.7 1221.8 191.7C1163.7 200.7 1105.3 175.3 1047.2 164.5C989 153.7 931 157.3 872.8 144.8C814.7 132.3 756.3 103.7 698.2 96.5C640 89.3 582 103.7 523.8 118C465.7 132.3 407.3 146.7 349.2 148.5C291 150.3 233 139.7 174.8 150.5C116.7 161.3 58.3 193.7 29.2 209.8L0 226Z" fill="#3c80ff"></path><path d="M0 487L29.2 488.8C58.3 490.7 116.7 494.3 174.8 519.5C233 544.7 291 591.3 349.2 603.8C407.3 616.3 465.7 594.7 523.8 596.5C582 598.3 640 623.7 698.2 632.7C756.3 641.7 814.7 634.3 872.8 620C931 605.7 989 584.3 1047.2 568.2C1105.3 552 1163.7 541 1221.8 535.5C1280 530 1338 530 1396.2 548C1454.3 566 1512.7 602 1570.8 612.8C1629 623.7 1687 609.3 1745.2 593.2C1803.3 577 1861.7 559 1890.8 550L1920 541L1920 237L1890.8 260.3C1861.7 283.7 1803.3 330.3 1745.2 348.3C1687 366.3 1629 355.7 1570.8 321.5C1512.7 287.3 1454.3 229.7 1396.2 222.3C1338 215 1280 258 1221.8 265.2C1163.7 272.3 1105.3 243.7 1047.2 249.2C989 254.7 931 294.3 872.8 301.5C814.7 308.7 756.3 283.3 698.2 259.8C640 236.3 582 214.7 523.8 225.5C465.7 236.3 407.3 279.7 349.2 285.2C291 290.7 233 258.3 174.8 253C116.7 247.7 58.3 269.3 29.2 280.2L0 291Z" fill="#0066ff"></path><path d="M0 941L29.2 939.2C58.3 937.3 116.7 933.7 174.8 933.7C233 933.7 291 937.3 349.2 930.2C407.3 923 465.7 905 523.8 905C582 905 640 923 698.2 930.2C756.3 937.3 814.7 933.7 872.8 919.2C931 904.7 989 879.3 1047.2 866.7C1105.3 854 1163.7 854 1221.8 846.8C1280 839.7 1338 825.3 1396.2 820C1454.3 814.7 1512.7 818.3 1570.8 829.2C1629 840 1687 858 1745.2 850.8C1803.3 843.7 1861.7 811.3 1890.8 795.2L1920 779L1920 539L1890.8 548C1861.7 557 1803.3 575 1745.2 591.2C1687 607.3 1629 621.7 1570.8 610.8C1512.7 600 1454.3 564 1396.2 546C1338 528 1280 528 1221.8 533.5C1163.7 539 1105.3 550 1047.2 566.2C989 582.3 931 603.7 872.8 618C814.7 632.3 756.3 639.7 698.2 630.7C640 621.7 582 596.3 523.8 594.5C465.7 592.7 407.3 614.3 349.2 601.8C291 589.3 233 542.7 174.8 517.5C116.7 492.3 58.3 488.7 29.2 486.8L0 485Z" fill="#0059dd"></path><path d="M0 1081L29.2 1081C58.3 1081 116.7 1081 174.8 1081C233 1081 291 1081 349.2 1081C407.3 1081 465.7 1081 523.8 1081C582 1081 640 1081 698.2 1081C756.3 1081 814.7 1081 872.8 1081C931 1081 989 1081 1047.2 1081C1105.3 1081 1163.7 1081 1221.8 1081C1280 1081 1338 1081 1396.2 1081C1454.3 1081 1512.7 1081 1570.8 1081C1629 1081 1687 1081 1745.2 1081C1803.3 1081 1861.7 1081 1890.8 1081L1920 1081L1920 777L1890.8 793.2C1861.7 809.3 1803.3 841.7 1745.2 848.8C1687 856 1629 838 1570.8 827.2C1512.7 816.3 1454.3 812.7 1396.2 818C1338 823.3 1280 837.7 1221.8 844.8C1163.7 852 1105.3 852 1047.2 864.7C989 877.3 931 902.7 872.8 917.2C814.7 931.7 756.3 935.3 698.2 928.2C640 921 582 903 523.8 903C465.7 903 407.3 921 349.2 928.2C291 935.3 233 931.7 174.8 931.7C116.7 931.7 58.3 935.3 29.2 937.2L0 939Z" fill="#004cbb"></path></svg>